<svg xmlns="http://www.w3.org/2000/svg" width="300" height="256"><style>.st1{fill:#09205f}</style><path d="M166.4 137.8l-19.9-9.6s-10.9 10.2-25.5 10.2-26.2-13.2-26.2-13.2l-34 22.7s-13.4 9.5-10.6 45H153s.1-24.9 5-38.1c4.8-13.3 8.4-17 8.4-17z" opacity=".3" fill="#09205f"/><path class="st1" d="M262.7 147.1c-.3-1.9-.7-3.9-1.3-5.6-.3-1.3-.6-2.6-1.2-3.7-.2-.9-.6-1.8-.8-2.8-.3-.6-.6-1.3-1.2-1.8-.6-.6-1.1-1.3-1.8-1.8-.6-.6-1.3-.9-1.8-1.4-.2-.1-.6-.3-.6-.5l-.9-.3c-.6-.6-1.6-.9-2.3-1.3-1.1-.5-2.2-.6-3.4-.8l-2.9-.3c-.6 0-.9-.1-1.5-.2s-1.1-.1-1.7-.2c-.9-.1-1.8-.1-2.9-.3-1.1-.2-2-.5-3.1-.6-1.1-.2-2.1-.3-3.2-.5-.6 0-.9-.1-1.5-.2.1-.5.2-.8.3-1.3.3-1.1.6-2.1.7-3.1.3-1.1.6-2.1.6-3.2.1-.7.1-1.6 0-2.3-.1-.6-.3-1.4-.6-2-.3-.7-.8-1.4-1.5-1.8-.5-.3-.8-.6-1.4-.7h-.1c-1.2-.6-2.3-.7-3.5-1.1-1.1-.2-2.1-.3-3.1-.5-1.1-.1-2.1-.2-3.2-.5-1.2-.3-2.5-.6-3.7-.6-1.5-.2-2.9-.5-4.3-.5-1.3 0-2.6.1-3.9.1-1.5-.1-2.9-.3-4.3-.3s-2.9 0-4.3.1c-.6 0-1.1.1-1.7.2-.5.1-.7.2-1.3.3-.6.2-1.2.5-1.8.6-.5.2-.6.6-.9.7-.5.5-.6.9-.6 1.5-.2.6-.3 1.3-.5 1.8-.1.6-.3 1.3-.6 1.9-.5 1.3-.7 2.7-.9 4v.2c-.6-.2-1.2-.3-1.8-.5-.6 0-1.1-.1-1.6-.2-.9-.3-1.9-.6-3-.6-1.2-.1-2.3-.1-3.5 0-.9.1-1.8.1-2.9.2-.6 0-1.5-.1-2.1 0-.6 0-.9.1-1.5.3-.5.2-.8.5-1.3.6-.3.1-.6.3-.7.5-.6.5-.9 1.1-1.2 1.8-.2-.1-.3-.2-.6-.2-.2-.1-.6-.2-.6-.2-.6-.1-1.1-.1-1.6 0l-.8.2-1.1.6c-.2.1-.5.3-.6.6-.5.5-.7.6-1.2 1.1l-.3.3c-1.3-.6-2.5-1.4-3.7-1.9-5.1-2.7-10.4-2.9-14.3-7.5-1.4-1.7-2.1-3.7-3.4-5.3-1.5-1.8-1.8-.7-1.7-2.9.1-1.3 1.1-2.9 1.5-4 .9-3.3 1.1-6.7 1.4-10.2.2-2.8-.6-8.5.5-10.9.5-.9 1.8-1.8 2.2-2.9.5-1.1.7-2.2.8-3.3.6-3.1.9-6.8.2-9.9-.1-.6-1.2-.9-1.3-1.4-.1-.7.5-2.7.6-3.6.6-3.3 1.5-7.1 1.3-10.5-.3-6.7-15.4-27.1-22.7-17.5-1.7-4.3-9.2-2.9-12.6-2.6-6 .6-11.5 2.3-16.1 6.2-4.6 3.7-8.5 9.8-9.7 15.6-.6 2.8-2.1 13.8 2 15-5.1 1.8-5.6 12.6-2.9 16.5 1.2 1.7 3.1 1.4 3.9 2.7 1.2 2.3.7 7.4 1.1 10.2.3 2.8.3 5.3 1.2 7.8.6 1.5 1.8 4.3 1.4 6.1-.5 1.8-2.5 2.9-3.6 4.3-1.2 1.7-2 4.1-3.5 5.6-3 3.3-10.8 5.5-15.2 7.6-2.9 1.4-5.7 2-8.3 4.1-1.8 1.6-3.9 2.9-5.8 4.3-6.7 4.8-10.2 15.8-11.7 23.7-.8 4.3-.8 8.8-.8 13.2 0 3.7-.8 9.5.5 13 1.3 3.4 5.5 3.1 6.7-.3.6-1.6.2-4 .2-5.6 0-1.3.1-2.6.1-3.9 0-.5.1-2.9.1-2.8.6-10.3 3.2-20.7 9-29.2 2.8-4.1 8.2-6 12.4-8.5 4.3-2.6 8.8-4.3 13.1-6.5 2.2-1.2 1.8-1.4 3.4 1.1 1.4 2.3 3 4.4 4.6 6.7 2 2.8 4.8 8 8 9.5 4.1 1.9 6.2-4.9 7.9-7.5.6-.6 2-4 3-4.3.9-.5 4 .8 5.4.6-.6 8.8-.5 17.6-.8 26.3-.3 3.9-.5 7.6-.2 11.5 0 .9.1 6.9 2.6 4.4.6-.6.6-3.5.6-4.1-.2-4.2-.5-8.5-.3-12.8.3-8.6-.2-17.4.3-26 2.2 1.8 4.2 4 5.5 6.5.6 1.1 1.5 2.1 1.8 3.2.2.6.2 1.7.3 1.9.9 1.8 1.6 2.5 3.7 1.4 3.4-1.7 6.5-6.7 8.7-9.6 3-4.1 6.4-8.3 8.5-13 1.6 2.5 5.5 4.2 9 5.7-.3.6-.6.8-.8 1.4-.7 1.2-1.4 2.3-1.9 3.6-.6 1.1-.9 2.1-1.4 3.3-.5 1.1-.7 2-1.2 3.1s-.7 2-1.1 3c-.7 2.6-1.4 5.1-1.9 7.7-.6 2.1-.8 4.3-1.3 6.7-.5 2.3-.7 4.7-1.1 6.9-.2 1.3-.2 2.7-.2 4v.7c0 .6.1 1.3.3 1.8.5 1.2 1.2 2.2 2.1 2.9.3.2.6.5.7.6l-.1.3-1.2 3.9c-.3 1.3-.6 2.5-.8 3.7-.2 1.2-.5 2.2-.6 3.4-.2 1.3.6 11.1.6 18.7 0 1.5.6 3.5 4.9 4.9.3.1 1.2-.6 1.7-.1.3.2.6.3.7.6.6.2.9.5 1.5.6.9.3 1.8.6 2.9.6.6.1 1.2.1 1.8.2.8.1 1.7.3 2.5.6l2.7.6c2.2.6 4.6 1.4 6.8 1.9 1.3.3 2.6.6 4 .9l3.3.6c2.3.6 4.7 1.2 7 1.8 2.2.6 4.4 1.1 6.7 1.7 2.3.6 4.7.9 7 1.7 2.3.6 4.8 1.3 7.1 1.8 1.1.2 2.1.5 3.1.6l3.5.8c1.2.3 2.2.5 3.3.6 1.1.2 2.3.5 3.4.6.8.2 1.8.5 2.7.6.8.1 1.8.3 2.7.5.8.2 1.7.3 2.6.5.5.1.7.1 1.1.1h1.5c.2 0 .6-.1.6-.1l.3.1c.5.2.8.3 1.4.2.6-.1 1.4-.5 1.8-.9.2-.2.3-.5.5-.6.6-.3.9-.7 1.2-1.3.1-.2.1-.3.2-.6l.1-.1.5-.3.9-.3c.6-.1 1.4-.2 2-.2h1.3c.5 0 .8-.1 1.3-.3.2.1.3.2.6.3 1.5.6 3.1 0 4-1.4.3 0 .6-.1.8-.2s.3-.1.6-.2c.2.8.6 1.7 1.3 2.1.9.7 2.2.9 3.4.6 1.2-.6 1.9-1.5 2.1-2.8.1-1.2-.2-2.1-.3-3.3l.3-5.4c.2-2.2.5-4.3.6-6.7s.2-4.8.3-7.1c.1-2.3.6-4.7.6-6.9.5-4.7.6-9.4 1.4-14 .5-2.3.6-4.6.9-6.9.3-2.3.6-4.7.8-7.1.2-1.8.3-3.5.6-5.4.2-1.8.5-4 .6-5.7-.6-1.8-.7-3.7-1.1-5.8zM143.8 67.4c.2.1.5.1.6 0 .6 1.9.6 4.7.3 6.7-.1.7-.3 1.5-.6 2.2 0-1.4-.5-2.7-.6-4 .1-1.3.8-3.6.3-4.9zM89.5 78.9c-.1-.3-.1-.6-.2-.8-.2-1.8-.5-4.3.1-6.3.2 2.3.1 4.6.1 7.1zm2.8-9.6c-.6-1.8-.7-3.4-.9-5.1-.6-3.6-.3-7.2.6-10.8 1.7-6.5 7.2-11.7 13-14.7 3.1-1.8 6.4-2.9 9.9-3.5 1.8-.3 8.4 1.6 9.5 0 .5 2 6.7.1 8.5 1.2 2.9 1.8 5.6 6.4 7.8 9.2 4.6 6.2.5 14.4 2.3 21.3-.6-.5-.6-1.8-1.8-1.4-.6 6.5.6 13.3-.5 20 0 14.4-3.6 31.1-20.9 32.6-12.4 1.2-22.1-12.8-24.4-23.3-.8-4-1.5-7.8-1.8-11.8-.1-2.9 1.2-6.7.6-9.5-.3-2.2-1.2-2.2-1.9-4.2zm14.7 67.3c-.7 1.4-1.7 2.8-2.5 4.1-2.6-2.9-4.9-5.8-7.2-9-1.7-2.2-7.2-8.8-6.2-11.8 1.4-3.6 6 2.6 7.4 3.7 3.4 3 7 6.7 11.1 9-.8 1.2-1.9 2.5-2.6 4zm14.1-6c-.6 0-3-.6-4-.6-4.1-.5-6.8-2.9-9.9-5.5-2.1-1.8-5.3-3.9-6.9-6.1-1.1-1.5-.9-1.4-1.2-3.3-.2-1.5 0-3.1-.1-4.6 4.3 5.5 11.7 10.8 18.8 11 7.6.5 14.6-4 19.2-9.7-.1 3.4.6 5.8-1.6 8.6-1.9 2.6-4.1 5.4-6.9 6.9-1.8.9-4 1.8-6 2.2-.3.2-1 1.1-1.4 1.1zm22.6-6.2c-3.2 6.2-7.2 11.9-11.9 17.1-1.8-2.7-4.1-5-6-7.7 7.4-2.5 12.2-8.9 16.4-15 2.3 2.5 3.3 2.3 1.5 5.6zm105 11.7c.6-.6 1.4-1.3 2.1-1.8l.2.1.6.5c.2.2.6.3.7.5l.6.6c-.5-.6 0-.1.1.1l.5.5c.3.2.6.6.7.6.1.1.3.5.6.6 0 .1.1.2.1.5.2 1.2.5 2.3.5 3.6-.6 0-.9 0-1.4.1-.6.1-1.5.5-2.1.6-.7.6-1.6 1.1-2.2 1.8-.1.1-.2.1-.2.2-.3-.2-.6-.6-.9-.6-.3-.2-.6-.3-.9-.5-.2-.1-.5-.1-.6-.1-.3 0-.6 0-.8.1-.7.3-1.6.6-2.1 1.2-.1.1-.2.1-.2.2h-.6c.2-.6.5-.8.6-1.4s.5-.8.6-1.3l.6-1.2 1.7-2.5c.5-.9 1.1-1.6 1.8-2.4zm-55.2-17.5c.3-1.1.6-2.1 1.1-3.1.5-1.1.6-2.2.9-3.4.1-.2.1-.3.2-.6.5-.2.7-.3 1.1-.5.6-.1.9-.2 1.5-.2h3.4c1.2 0 2.3.1 3.5.3.6.1 1.5.2 2.1.2h1.7c.6 0 1.4 0 1.9.1.7.1 1.5.2 2.2.5 1.5.3 2.9.6 4.3.9.6.2 1.4.3 2 .6.6.1 1.5.2 2.1.3 1.3.1 2.5.5 3.7.6.6.2 1.2.5 1.7.6 0 .2.1.6.1.7-.1.9-.3 1.9-.6 2.9l-.8 2.9c-.5 1.2-.6 2.5-1.1 3.6-.1.2-.1.6-.2.6 0 .1-.1.3-.1.5l-.6-.1c.1-.2.1-.3.2-.6.3-.7.6-1.7.6-2.5.2-.7.2-1.6.2-2.5 0-.2 0-.5-.1-.6-.1-.6-.5-1.2-.8-1.7-.3-.2-.6-.5-.9-.6-.6-.3-1.4-.5-2.1-.6-1.5-.2-3-.3-4.4-.5-.7-.1-1.7-.2-2.5-.3-.7-.1-1.5-.3-2.1-.5-2.7-.6-5.3-1.3-7.9-1.2-1.2 0-2.2.1-3.4.2-.6.1-1.3.2-1.8.5-.6.1-.9.3-1.5.6-.3.1-.6.5-.6.6-.1.3-.1.6 0 .9.1.2.2.3.3.5-.1.1-.1.3-.2.5-.3.7-.6 1.5-.7 2.2-.1.5-.2.7-.2 1.2-.6.3-1.4.2-1.9-.1-.3-.2-.6-.6-.7-.7-.2-.5.1-1.3.4-2.2zm27.9 3.9c-.1.6-.2 1.1-.3 1.6-.2.7 0 .8-.1.8-.6-.1-23.3-2.7-23.4-3.1 0-.2.1-.7.1-.8.2-.6.5-1.1.6-1.7.1-.3.3-.6.5-.9l.6-.1c.6-.1 1.1-.1 1.6-.1 1.1-.1 2.2-.1 3.3-.1 2.9.1 5.6.9 8.5 1.5 1.4.3 2.7.5 4 .6l2 .2c.8.1 1.8.2 2.7.5v.2c-.1.4-.1.9-.1 1.4zm-66.8 46.1c.1-1.3.2-2.6.5-3.9l.6-5c.2-1.7.5-3.3.6-4.9.2-1.4.6-2.7.7-4 .2-.6.5-1.5.6-2.1.6-2.2 1.6-4.3 2.5-6.7.8-2.3 1.8-4.6 3.1-6.7.6-1.1 1.4-2.1 2-3.1.8-1.1 1.8-2 2.7-2.9l2.9-2.7c.2-.1.3-.3.5-.5.6-.5.8-.9 1.1-1.7.5.2.6.3 1.1.5.6.1 1.3 0 1.8-.3.5-.1.7-.1 1.2-.1.6-.1 1.4-.1 2-.1.7 0 1.7.1 2.5.2.8.2 1.8.5 2.7.5.8.1 1.8.2 2.7.2h1.4l1.9.2c.3 0 7.7.5 8.2.6.5.1.6.1 1.1.2.6.1 3 .6 3.7.7l.8.3 1.2.3c1.4.3 2.9.5 4.2.6 1.5.1 2.9.2 4.3.5 1.4.2 2.9.5 4.2.6.6.2 1.3.5 1.9.6h.6l9.7 1.2c.8.2 1.8.2 2.7.3 2.3.3 4.6.7 6.9.9l3.2.3c1.1.1 2.1.3 3.2.3h.3c-.6.6-1.2 1.2-1.7 1.8-.6.7-1.2 1.6-1.8 2.5-.6.9-1.3 2-1.8 3.1-.6.8-.8 1.8-1.3 2.9-.5.9-.7 1.8-1.2 2.9-.6 1.8-1.4 3.6-2 5.5-.6 2.1-1.5 4.3-1.9 6.4-.6 2-.8 4.1-1.4 6.2-.7 3.7-1.5 7.4-1.8 11.1-.1.9-.2 1.9-.2 2.9-.1.9-.1 2-.1 3.1 0 .8 0 1.8-.1 2.7-.2-.2-.5-.3-.6-.5h.3c-.6-.2-1.3-.5-1.9-.6-.6-.1-1.1-.2-1.7-.3-.9-.2-2-.3-3-.6-.9-.2-1.9-.2-2.9-.5-.9-.1-2.1-.2-3.1-.3-.5 0-.7 0-1.3-.1-.6-.1-1.2-.1-1.8-.2-.6-.1-.8-.2-1.4-.2-.6-.1-1.1-.1-1.6-.2-.9-.1-1.9-.2-3-.3-1.1-.1-2.1-.3-3.2-.5-.7-.1-1.6 0-2.3 0s-1.6.1-2.3.1l.3-2c.1-.6.1-1.4 0-2-.1-.3-.1-.6-.2-.7-.1-.3-.3-.6-.6-.7-.2-.3-.5-.6-.6-.6l-.6-.6c-.3-.2-.6-.5-.9-.6l-.2-.1c-.2-.1-.5-.1-.6-.2-.6-.2-1.2-.3-1.8-.5-.6-.1-1.1-.2-1.7-.2-.6-.1-1.4-.1-2-.2-1.4-.2-2.8-.1-4.2 0-.6.1-1.1.2-1.7.5-.6.2-.9.6-1.4.7-.6.6-1.4 1.4-1.8 2.1-.2.3-.3.6-.6.7-2.9-.6-5.8-1.2-8.8-1.8l-4.4-.6c-2.1-.5-4.3-.6-6.4-1.2-1.9-.6-3.9-1.4-5.5-2.3l-.6-.5c-.5-.2-1.2-.4-1.9-.4zm42.1 14.3c0 1.9.1 4 .1 5.8 0 1.6-.1 3-.6 4.6-.1.5-.3.7-.6 1.2-.1.1-.1.2-.2.2 0 0-.1.1-.2.1s-.2.1-.3.1h-.2c-.2 0-.5-.1-.6-.1-.6-.2-1.3-.6-1.9-.6-.7-.3-1.7-.6-2.6-.6-.6-.1-1.5-.2-2.1-.3-.9-.1-2-.2-3-.3 0-.5-.1-.7-.1-1.1l.3-3.9c.1-1.3.3-2.6.5-3.9.2-1.4.5-2.9.6-4.2 0-.6.1-1.5.1-2.1v-.2l.8-.8c.1-.1.3-.2.5-.3.2-.1.5-.2.6-.2.7-.2 1.7-.3 2.5-.3.7 0 1.7.1 2.5.2 1.1.1 2.1.2 3.1.5.3.1.6.2.6.3l.2.2v.5c0 .8-.1 1.8-.2 2.7.2.5.2 1.5.2 2.5zm58.9-31.4c0 1.1-.2 2-.3 3.1-.2 2-.5 4.1-.6 6.1-.2 1.9-.2 4-.5 5.8-.2 1.9-.6 4-.6 6.1-.2 2-.6 4.1-.6 6.3-.2 2-.6 4-.6 6.1-.2 2.1-.3 4.3-.5 6.5 0 .8-.1 1.8-.1 2.7-.2 1.8-.5 3.6-.6 5.5-.2 2.2-.2 4.6-.3 6.9-.2 2.8-.6 5.4-.6 8.1 0 .6-.1 1.4-.1 2.1l-.2-.1c-.2-.1-.5-.1-.6-.2-.1-.2-.2-.3-.5-.6l-.5-.2h-.1c-.3-.1-.6-.1-.7-.1-.6 0-.8.1-1.3.2-.3.1-.6.3-.8.5-.2.1-.3.2-.5.3-.2.2-.6.5-.6.6l-.1-.1c-.6-.5-1.3-.6-1.9-.6-.5-.1-.7-.1-1.2-.1-.3 0-.6 0-.8.1-.6.1-1.2.3-1.8.6-.6.2-.9.6-1.4.8-.3.2-.6.6-.7.6-.3.3-.6.6-.6.8 0 .1 0 .1-.1.2-.6.6-1.2 1.2-1.6 1.8h-.1l-1.5-.5-.7-.1c-1.1-.1-2.1-.3-3.1-.6-1.1-.2-2-.3-3.1-.6-1.1-.2-2.1-.5-3.3-.6-1.1-.2-2.2-.3-3.4-.6-1.2-.1-2.3-.5-3.5-.6-2.3-.6-4.7-.7-6.9-1.2s-4.3-.9-6.7-1.5c-2.3-.5-4.7-.8-7-1.4-2.5-.6-4.9-1.1-7.4-1.7-2.2-.6-4.4-1.1-6.8-1.6-1.2-.3-2.3-.6-3.5-.7-.9-.2-2-.6-3-.7-2.1-.6-4.3-1.3-6.4-1.8-1.8-.6-3.7-.9-5.6-1.2-.6 0-.9 0-1.6-.1l-.7-.1c-.6.5-1.2.6-1.8.6-1.1-.1-1.8-1.1-1.8-2.1 0-.6.1-1.3.2-1.8-.2-1.2-.5-2.5-.6-3.6-.1-.6-.1-1.5-.1-2.2v-2.3l.1-3.9c0-1.3.2-2.6.2-3.9.1-1.2.2-2.2.3-3.4l.2-2.1.3-2v-3c0-.3.1-.6.2-.9.7.5 1.6.6 2.3.9 1.8.6 3.7 1.2 5.6 1.6 1.9.5 4 .6 5.8 1.1 1.9.5 4 .8 6.1 1.3l2.8.6c.9.2 1.8.5 2.9.6h.5l-.6 2.9-.8 4.1-.3 2c-.1.8-.1 1.7-.1 2.6 0 .7.1 1.6.5 2.3.2.6.6 1.1 1.1 1.4.6.5 1.3.6 2 .7.9.2 1.9.5 2.9.6 1.4.1 2.7.5 4 .6.6.1 1.2.3 1.8.5.3.1.6.1.9.1 1.1.1 2.2-.1 3.2-.6.5-.3.7-.6 1.1-.9.1-.1.2-.3.3-.6.2-.2.3-.6.5-.7.2-.6.5-.8.6-1.4.2-.6.3-1.2.5-1.8.2-1.2.3-2.5.3-3.6v-5c.2 0 .6.1.6 0 1.2-.1 2.3-.1 3.5-.1l2.9.3 2.9.3c.6 0 .9.1 1.6.1.6.1 1.2.2 1.7.3.9.2 1.9.3 2.9.3s1.9.1 2.9.2c.9.1 2.1.3 3.1.5.6.1.8.1 1.4.2.6.1 1.2.2 1.8.2 1.1.1 2 .1 3.1.2h.2c.6.1 1.2-.1 1.6-.6v.1c.6-.2 1.3-.3 1.8-.6.1-.2.2-.3.2-.6.1-3.4.5-6.8.9-10.3.5-2 .7-4.1 1.3-6.2.6-2 1.1-4.1 1.6-6.2.2-.6.3-1.3.6-1.8l1.5-4.7c.6-1.8 1.4-3.7 2.1-5.5.6-1.2.9-2.5 1.5-3.6 0 .1 0 .3.1.5-.6 1.8-.8 3.5-1.2 4.7-.2.7-.5 1.5-.6 2.2-.3 1.6-.6 3-.9 4.6-.2.9-.5 1.8-.6 2.9-.3 1.5-.6 3-.8 4.4-.2 1.1-.5 2-.6 3.1-.2 1.1-.3 2.2-.6 3.3-.1 1.1-.3 2.3-.6 3.5-.1 1.2-.3 2.5-.5 3.6s-.3 2.5-.6 3.7c-.2 1.2-.5 2.6-.6 3.7-.5 2.5-.8 4.8-1.2 7.2-.2 1.2-.3 2.5-.6 3.7-.1 1.3-.2 2.5-.3 3.7-.2 1.3-.2 2.5-.3 3.6-.1 1.2-.2 2.2-.3 3.3-.2 2.5-.2 4.9.1 7.2.1.7.1 1.6.2 2.3 0 .3 0 .6-.1.9-.1.6.3.8.6.9.6.1.8-.3.9-.6.1-.6.1-1.3 0-1.9-.1-.6-.1-1.1-.1-1.6-.1-1.1-.1-2.1-.1-3.2 0-1.2.1-2.2.3-3.3.2-1.2.3-2.3.6-3.4.5-2.5.6-4.9 1.1-7.4.3-2.2.6-4.6 1.1-6.8.2-1.3.6-2.6.6-3.9l.6-3.9c.5-2.5.6-4.9.8-7.4.2-2.2.6-4.4.7-6.7.2-1.1.3-2.1.6-3.2l.8-4.6.6-2.7.9-4.8c.5-1.6.7-3.1 1.2-4.8.2-.6.5-1.7.6-2.7v-.1l.1-.2c.1-.2.3-.5.5-.6.3-.3.6-.6 1.1-.7.1-.1.3-.1.5-.2h.2c.1 0 .2.1.3.1l.5.3c.2.1.5.3.6.5l.8.3h.1l-.5 1.4c-.1.3-.2.6-.2.8-.1.5-.2.7-.2 1.2-.2.9-.5 1.8-.6 2.9-.2.7-.3 1.7-.5 2.5-.3 1.7-.6 3.3-.7 4.9-.2 1.2-.5 2.2-.6 3.4-.1.6-.1 1.1-.2 1.7l-.5 3.4c-.1.6-.1 1.4-.1 2.1l-.3 5.4c-.1 1.8-.2 3.5-.5 5.3-.1 1.6-.2 3.1-.3 4.8-.1 1.8-.3 3.4-.6 5.1-.2 1.8-.5 3.5-.6 5.4-.2 1.7-.3 3.3-.6 5-.1 1.7-.3 3.4-.5 5.1 0 .6-.1 1.5-.2 2.1l-.3 2c-.2 1.5-.3 2.9-.6 4.3 0 .1.1.2.2.3.1 0 .2-.1.3-.2.1-.9.2-1.8.5-2.9.1-.7.3-1.6.5-2.5.2-.8.3-1.8.5-2.8.1-.7.1-1.6.2-2.3.2-1.7.5-3.3.6-5.1s.6-3.5.7-5.3.6-3.5.8-5.1c.3-1.7.6-3.4.7-5.1s.5-3.4.6-5.1c.2-1.8.5-3.4.6-5.1.2-1.7.3-3.4.6-5.1 0-.3.1-.6.1-.7l.2-1.8c.1-.6.1-1.2.2-1.8 0-.2 0-.5.1-.6.3-1.8.6-3.9.9-5.6.3-1.8.6-3.4.9-5.1.2-1.4.6-2.7.7-4 .1-.6.2-.9.5-1.4l.6-1.9c.1-.2.1-.5.2-.6l.1-.5v.5c.1-.1.3-.2.6-.3.5-.2.6-.3 1.1-.5.6-.1.8-.2 1.4-.2h.1l.2.1v.1c0 1.5.1 2.9.1 4.3.2.7.2 1.7.2 2.6z"/><path class="st1" d="M100 58.1c2.9-3.3 6.7-5.8 10.8-7.2 3.9-1.2 8.1-.6 11.5-3 1.4-1.1 6.4-7.4 3.9-8.9-2.2-1.3-3.7 4.6-4.6 5.6-2.8 3.1-7.2 2.2-10.8 3.3-3.6 1.1-6.9 2.9-9.7 5.3-2 1.8-7.9 7.4-6.7 10.6 1.3 3.8 4.5-4.5 5.6-5.7zm24.8 40.6c-2.5-1.5-7.7 1.2-10.8.3-1.7-.6-7-2.6-5.1 1.9 1.2 2.9 7.7 2.7 10.1 2.3.9-.1 10.3-1.7 5.8-4.5zm-9.5 42.3c-2.1-1.4-4.3 2.9-2.1 4.1 2.3 1.4 4.8-3.4 2.1-4.1zm-1.5 15.8c-2.7 0-2.7 4.2 0 4.2s2.7-4.2 0-4.2zm4.2-70.6c-2-.5-5.1-2-6.7.5-1.6 2.8 1.3 4 3.4 4s6.4-.7 7.8-2.7c1.5-1.9.5-6.3.2-8.5-.3-2.9 1.1-10.1-.6-12.4-1.3-1.8-2.5-.8-3.1.6-.9 1.9.3 6.3.6 8.5.1 2.1.3 4.1.5 6.2 0 2 1 4-2.1 3.8zm-16.6-10.1c.2 1.7.9 3 2.9 2.8 2.6-.5 2.3-3.2 1.9-5.1-.9-4.1-5.4-.7-4.8 2.3zm27.6.3c.5 1.3 1.1 2.9 2.9 2.3 1.9-.6 1.3-3.7.9-5.3-.3-1.7-2.8-1.9-3.7-.7-.6.7-.5 2.8-.1 3.7z"/></svg>
